<svg xmlns="http://www.w3.org/2000/svg" style="display: none;">
<symbol id="close" fill="currentColor" viewBox="0 0 16 16">
  <path d="M16 8A8 8 0 1 1 0 8a8 8 0 0 1 16 0M5.354 4.646a.5.5 0 1 0-.708.708L7.293 8l-2.647 2.646a.5.5 0 0 0 .708.708L8 8.707l2.646 2.647a.5.5 0 0 0 .708-.708L8.707 8l2.647-2.646a.5.5 0 0 0-.708-.708L8 7.293z"/>
</symbol>
<symbol id="trash" fill="currentColor" viewBox="0 0 16 16">
  <path d="M2.5 1a1 1 0 0 0-1 1v1a1 1 0 0 0 1 1H3v9a2 2 0 0 0 2 2h6a2 2 0 0 0 2-2V4h.5a1 1 0 0 0 1-1V2a1 1 0 0 0-1-1H10a1 1 0 0 0-1-1H7a1 1 0 0 0-1 1zm3 4a.5.5 0 0 1 .5.5v7a.5.5 0 0 1-1 0v-7a.5.5 0 0 1 .5-.5M8 5a.5.5 0 0 1 .5.5v7a.5.5 0 0 1-1 0v-7A.5.5 0 0 1 8 5m3 .5v7a.5.5 0 0 1-1 0v-7a.5.5 0 0 1 1 0"/>
</symbol>
<symbol id="play" fill="currentColor" viewBox="0 0 16 16">
  <path d="m11.596 8.697-6.363 3.692c-.54.313-1.233-.066-1.233-.697V4.308c0-.63.692-1.01 1.233-.696l6.363 3.692a.802.802 0 0 1 0 1.393"/>
</symbol>
<svg id="clipboard" fill="currentColor" viewBox="0 0 16 16">
  <path d="M9.5 0a.5.5 0 0 1 .5.5.5.5 0 0 0 .5.5.5.5 0 0 1 .5.5V2a.5.5 0 0 1-.5.5h-5A.5.5 0 0 1 5 2v-.5a.5.5 0 0 1 .5-.5.5.5 0 0 0 .5-.5.5.5 0 0 1 .5-.5z"/>
  <path d="M3.5 1h.585A1.5 1.5 0 0 0 4 1.5V2a1.5 1.5 0 0 0 1.5 1.5h5A1.5 1.5 0 0 0 12 2v-.5q-.001-.264-.085-.5h.585A1.5 1.5 0 0 1 14 2.5v12a1.5 1.5 0 0 1-1.5 1.5h-9A1.5 1.5 0 0 1 2 14.5v-12A1.5 1.5 0 0 1 3.5 1"/>
</svg>
<svg id="search" fill="currentColor" viewBox="0 0 16 16">
  <path d="M11.742 10.344a6.5 6.5 0 1 0-1.397 1.398h-.001q.044.06.098.115l3.85 3.85a1 1 0 0 0 1.415-1.414l-3.85-3.85a1 1 0 0 0-.115-.1zM12 6.5a5.5 5.5 0 1 1-11 0 5.5 5.5 0 0 1 11 0"/>
</svg>
<svg id="lightning" fill="currentColor" viewBox="0 0 16 16">
  <path d="M11.251.068a.5.5 0 0 1 .227.58L9.677 6.5H13a.5.5 0 0 1 .364.843l-8 8.5a.5.5 0 0 1-.842-.49L6.323 9.5H3a.5.5 0 0 1-.364-.843l8-8.5a.5.5 0 0 1 .615-.09z"/>
</svg>
<svg id="settings" fill="currentColor" viewBox="0 0 16 16">
  <path d="M9.405 1.05c-.413-1.4-2.397-1.4-2.81 0l-.1.34a1.464 1.464 0 0 1-2.105.872l-.31-.17c-1.283-.698-2.686.705-1.987 1.987l.169.311c.446.82.023 1.841-.872 2.105l-.34.1c-1.4.413-1.4 2.397 0 2.81l.34.1a1.464 1.464 0 0 1 .872 2.105l-.17.31c-.698 1.283.705 2.686 1.987 1.987l.311-.169a1.464 1.464 0 0 1 2.105.872l.1.34c.413 1.4 2.397 1.4 2.81 0l.1-.34a1.464 1.464 0 0 1 2.105-.872l.31.17c1.283.698 2.686-.705 1.987-1.987l-.169-.311a1.464 1.464 0 0 1 .872-2.105l.34-.1c1.4-.413 1.4-2.397 0-2.81l-.34-.1a1.464 1.464 0 0 1-.872-2.105l.17-.31c.698-1.283-.705-2.686-1.987-1.987l-.311.169a1.464 1.464 0 0 1-2.105-.872zM8 10.93a2.929 2.929 0 1 1 0-5.86 2.929 2.929 0 0 1 0 5.858z"/>
</svg>
<svg id="list" fill="currentColor" viewBox="0 0 16 16">
  <path fill-rule="evenodd" d="M5 11.5a.5.5 0 0 1 .5-.5h9a.5.5 0 0 1 0 1h-9a.5.5 0 0 1-.5-.5m0-4a.5.5 0 0 1 .5-.5h9a.5.5 0 0 1 0 1h-9a.5.5 0 0 1-.5-.5m0-4a.5.5 0 0 1 .5-.5h9a.5.5 0 0 1 0 1h-9a.5.5 0 0 1-.5-.5m-3 1a1 1 0 1 0 0-2 1 1 0 0 0 0 2m0 4a1 1 0 1 0 0-2 1 1 0 0 0 0 2m0 4a1 1 0 1 0 0-2 1 1 0 0 0 0 2"/>
</svg>

<svg fill="currentColor" id="residence"
	 viewBox="0 0 512 512">
			<path d="M493.933,92.867h-17.067v-25.6c0-5.12-3.413-8.533-8.533-8.533h-51.2c-5.12,0-8.533,3.413-8.533,8.533v25.6h-17.067
				c-5.12,0-8.533,3.413-8.533,8.533v136.533h-8.533v-25.6c0-5.12-3.413-8.533-8.533-8.533H357.4v-8.533
				c0-5.12-3.413-8.533-8.533-8.533c-5.12,0-8.533,3.413-8.533,8.533v8.533H331.8c-5.12,0-8.533,3.413-8.533,8.533v25.6h-25.6
				V67.267c0-5.12-3.413-8.533-8.533-8.533h-25.6v-51.2C263.533,2.413,260.12-1,255-1H152.6c-5.12,0-8.533,3.413-8.533,8.533v51.2
				h-25.6c-5.12,0-8.533,3.413-8.533,8.533v221.867H92.867v-25.6c0-5.12-3.413-8.533-8.533-8.533h-51.2
				c-5.12,0-8.533,3.413-8.533,8.533v25.6h-8.533c-5.12,0-8.533,3.413-8.533,8.533v204.8c0,5.12,3.413,8.533,8.533,8.533h102.4
				h68.267h204.8h102.4c5.12,0,8.533-3.413,8.533-8.533V101.4C502.467,96.28,499.053,92.867,493.933,92.867z M425.667,75.8H459.8
				v17.067h-34.133V75.8z M340.333,220.867H357.4v17.067h-17.067V220.867z M127,75.8h25.6c5.12,0,8.533-3.413,8.533-8.533v-51.2
				h85.333v51.2c0,5.12,3.413,8.533,8.533,8.533h25.6v162.133h-17.067V101.4c0-5.12-3.413-8.533-8.533-8.533
				c-5.12,0-8.533,3.413-8.533,8.533v136.533H229.4V101.4c0-5.12-3.413-8.533-8.533-8.533c-5.12,0-8.533,3.413-8.533,8.533v136.533
				h-17.067V101.4c0-5.12-3.413-8.533-8.533-8.533S178.2,96.28,178.2,101.4v145.067v42.667h-17.067V101.4
				c0-5.12-3.413-8.533-8.533-8.533c-5.12,0-8.533,3.413-8.533,8.533v187.733H127V75.8z M41.667,272.067H75.8v17.067H41.667V272.067
				z M24.6,306.2h8.533h51.2h34.133H178.2v17.067h-59.733c-5.12,0-8.533,3.413-8.533,8.533v162.133H24.6V306.2z M127,340.333h51.2
				V357.4h-25.6c-5.12,0-8.533,3.413-8.533,8.533s3.413,8.533,8.533,8.533h25.6v17.067h-25.6c-5.12,0-8.533,3.413-8.533,8.533
				c0,5.12,3.413,8.533,8.533,8.533h25.6v17.067h-25.6c-5.12,0-8.533,3.413-8.533,8.533s3.413,8.533,8.533,8.533h25.6V459.8h-25.6
				c-5.12,0-8.533,3.413-8.533,8.533s3.413,8.533,8.533,8.533h25.6v17.067H127V340.333z M195.267,331.8v-34.133V255h93.867H331.8
				h34.133H383v238.933h-17.067V280.6c0-5.12-3.413-8.533-8.533-8.533s-8.533,3.413-8.533,8.533v213.333H331.8V280.6
				c0-5.12-3.413-8.533-8.533-8.533s-8.533,3.413-8.533,8.533v213.333h-17.067V280.6c0-5.12-3.413-8.533-8.533-8.533
				s-8.533,3.413-8.533,8.533v213.333h-17.067V280.6c0-5.12-3.413-8.533-8.533-8.533c-5.12,0-8.533,3.413-8.533,8.533v213.333H229.4
				V280.6c0-5.12-3.413-8.533-8.533-8.533c-5.12,0-8.533,3.413-8.533,8.533v213.333h-17.067V331.8z M485.4,493.933h-85.333V246.467
				V109.933h17.067h51.2H485.4V493.933z"/>
			<path d="M425.667,331.8c-5.12,0-8.533,3.413-8.533,8.533V357.4c0,5.12,3.413,8.533,8.533,8.533s8.533-3.413,8.533-8.533v-17.067
				C434.2,335.213,430.787,331.8,425.667,331.8z"/>
			<path d="M425.667,383c-5.12,0-8.533,3.413-8.533,8.533V408.6c0,5.12,3.413,8.533,8.533,8.533s8.533-3.413,8.533-8.533v-17.067
				C434.2,386.413,430.787,383,425.667,383z"/>
			<path d="M425.667,434.2c-5.12,0-8.533,3.413-8.533,8.533V459.8c0,5.12,3.413,8.533,8.533,8.533s8.533-3.413,8.533-8.533v-17.067
				C434.2,437.613,430.787,434.2,425.667,434.2z"/>
			<path d="M425.667,280.6c-5.12,0-8.533,3.413-8.533,8.533V306.2c0,5.12,3.413,8.533,8.533,8.533s8.533-3.413,8.533-8.533v-17.067
				C434.2,284.013,430.787,280.6,425.667,280.6z"/>
			<path d="M425.667,127c-5.12,0-8.533,3.413-8.533,8.533V152.6c0,5.12,3.413,8.533,8.533,8.533s8.533-3.413,8.533-8.533v-17.067
				C434.2,130.413,430.787,127,425.667,127z"/>
			<path d="M425.667,178.2c-5.12,0-8.533,3.413-8.533,8.533V203.8c0,5.12,3.413,8.533,8.533,8.533s8.533-3.413,8.533-8.533v-17.067
				C434.2,181.613,430.787,178.2,425.667,178.2z"/>
			<path d="M425.667,229.4c-5.12,0-8.533,3.413-8.533,8.533V255c0,5.12,3.413,8.533,8.533,8.533S434.2,260.12,434.2,255v-17.067
				C434.2,232.813,430.787,229.4,425.667,229.4z"/>
			<path d="M459.8,331.8c-5.12,0-8.533,3.413-8.533,8.533V357.4c0,5.12,3.413,8.533,8.533,8.533c5.12,0,8.533-3.413,8.533-8.533
				v-17.067C468.333,335.213,464.92,331.8,459.8,331.8z"/>
			<path d="M459.8,434.2c-5.12,0-8.533,3.413-8.533,8.533V459.8c0,5.12,3.413,8.533,8.533,8.533c5.12,0,8.533-3.413,8.533-8.533
				v-17.067C468.333,437.613,464.92,434.2,459.8,434.2z"/>
			<path d="M459.8,178.2c-5.12,0-8.533,3.413-8.533,8.533V203.8c0,5.12,3.413,8.533,8.533,8.533c5.12,0,8.533-3.413,8.533-8.533
				v-17.067C468.333,181.613,464.92,178.2,459.8,178.2z"/>
			<path d="M459.8,127c-5.12,0-8.533,3.413-8.533,8.533V152.6c0,5.12,3.413,8.533,8.533,8.533c5.12,0,8.533-3.413,8.533-8.533
				v-17.067C468.333,130.413,464.92,127,459.8,127z"/>
			<path d="M459.8,280.6c-5.12,0-8.533,3.413-8.533,8.533V306.2c0,5.12,3.413,8.533,8.533,8.533c5.12,0,8.533-3.413,8.533-8.533
				v-17.067C468.333,284.013,464.92,280.6,459.8,280.6z"/>
			<path d="M459.8,383c-5.12,0-8.533,3.413-8.533,8.533V408.6c0,5.12,3.413,8.533,8.533,8.533c5.12,0,8.533-3.413,8.533-8.533
				v-17.067C468.333,386.413,464.92,383,459.8,383z"/>
			<path d="M459.8,229.4c-5.12,0-8.533,3.413-8.533,8.533V255c0,5.12,3.413,8.533,8.533,8.533c5.12,0,8.533-3.413,8.533-8.533
				v-17.067C468.333,232.813,464.92,229.4,459.8,229.4z"/>
			<path d="M50.2,425.667c-5.12,0-8.533,3.413-8.533,8.533v17.067c0,5.12,3.413,8.533,8.533,8.533s8.533-3.413,8.533-8.533V434.2
				C58.733,429.08,55.32,425.667,50.2,425.667z"/>
			<path d="M50.2,323.267c-5.12,0-8.533,3.413-8.533,8.533v17.067c0,5.12,3.413,8.533,8.533,8.533s8.533-3.413,8.533-8.533V331.8
				C58.733,326.68,55.32,323.267,50.2,323.267z"/>
			<path d="M50.2,374.467c-5.12,0-8.533,3.413-8.533,8.533v17.067c0,5.12,3.413,8.533,8.533,8.533s8.533-3.413,8.533-8.533V383
				C58.733,377.88,55.32,374.467,50.2,374.467z"/>
			<path d="M84.333,374.467c-5.12,0-8.533,3.413-8.533,8.533v17.067c0,5.12,3.413,8.533,8.533,8.533s8.533-3.413,8.533-8.533V383
				C92.867,377.88,89.453,374.467,84.333,374.467z"/>
			<path d="M84.333,425.667c-5.12,0-8.533,3.413-8.533,8.533v17.067c0,5.12,3.413,8.533,8.533,8.533s8.533-3.413,8.533-8.533V434.2
				C92.867,429.08,89.453,425.667,84.333,425.667z"/>
			<path d="M84.333,323.267c-5.12,0-8.533,3.413-8.533,8.533v17.067c0,5.12,3.413,8.533,8.533,8.533s8.533-3.413,8.533-8.533V331.8
				C92.867,326.68,89.453,323.267,84.333,323.267z"/>
			<path d="M186.733,75.8c5.12,0,8.533-3.413,8.533-8.533v-25.6c0-5.12-3.413-8.533-8.533-8.533s-8.533,3.413-8.533,8.533v25.6
				C178.2,72.387,181.613,75.8,186.733,75.8z"/>
			<path d="M220.867,75.8c5.12,0,8.533-3.413,8.533-8.533v-25.6c0-5.12-3.413-8.533-8.533-8.533c-5.12,0-8.533,3.413-8.533,8.533
				v25.6C212.333,72.387,215.747,75.8,220.867,75.8z"/>
</svg>
<svg fill="currentColor" id="apartment" viewBox="0 0 512 512">
			<path d="M502.467,493.933h-34.661c0.364-2.804,0.528-5.667,0.528-8.533c0-24.086-13.861-44.588-34.133-54.082V144.067
				c0-5.12-3.413-8.533-8.533-8.533h-128v-128c0-5.12-3.413-8.533-8.533-8.533h-230.4C53.613-1,50.2,2.413,50.2,7.533v486.4H7.533
				c-5.12,0-8.533,3.413-8.533,8.533S2.413,511,7.533,511h51.2h25.6h204.8H457.24h45.227c5.12,0,8.533-3.413,8.533-8.533
				S507.587,493.933,502.467,493.933z M417.133,426.269c-2.785-0.389-5.631-0.603-8.533-0.603c-6.442,0-12.761,1.097-18.731,3.148
				c-1.487-1.982-3.884-3.148-6.869-3.148c-5.12,0-8.533,3.413-8.533,8.533v2.615c-3.234,2.33-6.241,4.988-8.97,7.943
				c-0.431,0.456-0.855,0.918-1.27,1.388c-7.071-8.839-16.179-15.233-26.477-18.346c-1.479-1.357-3.518-2.134-5.95-2.134
				c-0.951,0-1.843,0.119-2.666,0.344c-1.927-0.225-3.884-0.344-5.867-0.344c-5.348,0-11.37,0.694-16.249,2.675
				c-0.604,0.204-1.204,0.414-1.798,0.639c-5.897-4.794-12.794-8.245-20.062-10.144c-0.077-0.021-0.156-0.036-0.232-0.057
				c-0.634-0.163-1.27-0.318-1.909-0.457c-0.518-0.114-1.042-0.213-1.565-0.311c-0.227-0.042-0.454-0.087-0.682-0.126
				c-0.549-0.095-1.1-0.179-1.655-0.256c-0.248-0.035-0.496-0.066-0.745-0.097c-0.509-0.063-1.02-0.122-1.534-0.169
				c-0.375-0.035-0.751-0.061-1.127-0.088c-0.402-0.028-0.803-0.061-1.208-0.08c-0.811-0.039-1.622-0.063-2.434-0.063
				c-0.628,0-1.251,0.013-1.871,0.036c-0.406,0.014-0.811,0.039-1.216,0.062c-0.162,0.01-0.326,0.017-0.488,0.028
				c-7.774,0.516-15.412,2.71-22.026,6.596V152.6h42.667h128V426.269z M67.267,16.067H280.6v119.467h-42.667
				c-5.12,0-8.533,3.413-8.533,8.533v265.387c-4.361-4.361-9.388-8.05-14.861-10.937c-0.483-0.258-0.971-0.508-1.461-0.752
				c-0.193-0.095-0.384-0.194-0.578-0.287c-6.09-2.954-12.717-4.892-19.642-5.617c-0.097-0.01-0.195-0.018-0.293-0.028
				c-0.804-0.08-1.612-0.143-2.424-0.19c-0.215-0.013-0.43-0.026-0.646-0.037c-0.917-0.043-1.837-0.072-2.762-0.072
				c-12.7,0-24.466,4.177-34.133,11.197v-2.663c0-5.12-3.413-8.533-8.533-8.533c-5.12,0-8.533,3.413-8.533,8.533v17.067
				c0,1.28,0.213,2.453,0.613,3.493c-4.19,6.905-7.077,14.689-8.293,22.961c-9.824,1.123-18.807,4.658-26.453,9.943v-2.263
				c0-5.12-3.413-8.533-8.533-8.533c-5.12,0-8.533,3.413-8.533,8.533v17.067c0,0.996,0.133,1.925,0.379,2.779
				c-4.231,6.843-7.11,14.586-8.296,22.82h-9.149V16.067z M131.65,459.977c0.169-0.015,0.34-0.025,0.51-0.038
				c0.45-0.035,0.9-0.069,1.354-0.09c0.669-0.03,1.342-0.05,2.02-0.05c5.12,0,8.533-3.413,8.533-8.533
				c0-23.893,18.773-42.667,42.667-42.667c21.333,0,39.253,15.36,41.813,36.693c0.577,2.308,1.947,4.21,3.821,5.474
				c0.118,0.083,0.239,0.161,0.362,0.238c0.132,0.081,0.263,0.163,0.4,0.237c0.315,0.174,0.643,0.333,0.985,0.47
				c0.013,0.005,0.025,0.01,0.038,0.016c0.391,0.156,0.799,0.287,1.22,0.392c0.001,0,0.001,0,0.002,0.001
				c0.508,0.169,1.085,0.234,1.695,0.215c2.805,0.041,5.414-1.493,6.837-3.626c0-0.001,0.001-0.001,0.002-0.002c0,0,0,0,0,0
				l0.853-0.853c6.827-8.533,16.213-13.653,27.307-13.653c5.762,0,11.521,1.614,16.69,4.632
				c-10.179,9.571-15.951,22.048-16.622,35.398c-0.045,0.873-0.068,1.753-0.068,2.637c0,5.934,0.987,11.621,2.94,17.067H93.72
				C97.714,475.562,112.924,461.678,131.65,459.977z M295.154,493.933c-3.26-5.514-5.167-12.033-5.167-17.92
				c0-9.436,3.72-17.937,10.114-24.151c1.222-1.133,2.525-2.179,3.901-3.126c1.333,0.01,2.674-0.268,3.905-0.883
				c18.773-10.24,40.96-0.853,47.787,17.92c0.853,2.56,3.413,5.12,7.68,5.12c0.81,0,1.706-0.258,2.606-0.716
				c2.141-0.351,3.834-1.923,5.074-4.404c3.307-7.027,8.427-12.637,14.659-16.57c1.345-0.375,2.5-1.039,3.419-1.94
				c5.861-2.946,12.505-4.53,19.469-4.53c23.893,0,42.667,18.773,42.667,42.667c0,2.56,0,5.973-0.853,8.533H295.154z"/>
			<path d="M280.6,220.867c-5.12,0-8.533,3.413-8.533,8.533v17.067c0,5.12,3.413,8.533,8.533,8.533s8.533-3.413,8.533-8.533V229.4
				C289.133,224.28,285.72,220.867,280.6,220.867z"/>
			<path d="M280.6,374.467c-5.12,0-8.533,3.413-8.533,8.533v17.067c0,5.12,3.413,8.533,8.533,8.533s8.533-3.413,8.533-8.533V383
				C289.133,377.88,285.72,374.467,280.6,374.467z"/>
			<path d="M280.6,272.067c-5.12,0-8.533,3.413-8.533,8.533v17.067c0,5.12,3.413,8.533,8.533,8.533s8.533-3.413,8.533-8.533V280.6
				C289.133,275.48,285.72,272.067,280.6,272.067z"/>
			<path d="M280.6,323.267c-5.12,0-8.533,3.413-8.533,8.533v17.067c0,5.12,3.413,8.533,8.533,8.533s8.533-3.413,8.533-8.533V331.8
				C289.133,326.68,285.72,323.267,280.6,323.267z"/>
			<path d="M280.6,169.667c-5.12,0-8.533,3.413-8.533,8.533v17.067c0,5.12,3.413,8.533,8.533,8.533s8.533-3.413,8.533-8.533V178.2
				C289.133,173.08,285.72,169.667,280.6,169.667z"/>
			<path d="M331.8,255c5.12,0,8.533-3.413,8.533-8.533V229.4c0-5.12-3.413-8.533-8.533-8.533c-5.12,0-8.533,3.413-8.533,8.533
				v17.067C323.267,251.587,326.68,255,331.8,255z"/>
			<path d="M331.8,203.8c5.12,0,8.533-3.413,8.533-8.533V178.2c0-5.12-3.413-8.533-8.533-8.533c-5.12,0-8.533,3.413-8.533,8.533
				v17.067C323.267,200.387,326.68,203.8,331.8,203.8z"/>
			<path d="M331.8,306.2c5.12,0,8.533-3.413,8.533-8.533V280.6c0-5.12-3.413-8.533-8.533-8.533c-5.12,0-8.533,3.413-8.533,8.533
				v17.067C323.267,302.787,326.68,306.2,331.8,306.2z"/>
			<path d="M331.8,357.4c5.12,0,8.533-3.413,8.533-8.533V331.8c0-5.12-3.413-8.533-8.533-8.533c-5.12,0-8.533,3.413-8.533,8.533
				v17.067C323.267,353.987,326.68,357.4,331.8,357.4z"/>
			<path d="M331.8,408.6c5.12,0,8.533-3.413,8.533-8.533V383c0-5.12-3.413-8.533-8.533-8.533c-5.12,0-8.533,3.413-8.533,8.533
				v17.067C323.267,405.187,326.68,408.6,331.8,408.6z"/>
			<path d="M383,306.2c5.12,0,8.533-3.413,8.533-8.533V280.6c0-5.12-3.413-8.533-8.533-8.533s-8.533,3.413-8.533,8.533v17.067
				C374.467,302.787,377.88,306.2,383,306.2z"/>
			<path d="M383,255c5.12,0,8.533-3.413,8.533-8.533V229.4c0-5.12-3.413-8.533-8.533-8.533s-8.533,3.413-8.533,8.533v17.067
				C374.467,251.587,377.88,255,383,255z"/>
			<path d="M383,408.6c5.12,0,8.533-3.413,8.533-8.533V383c0-5.12-3.413-8.533-8.533-8.533s-8.533,3.413-8.533,8.533v17.067
				C374.467,405.187,377.88,408.6,383,408.6z"/>
			<path d="M383,357.4c5.12,0,8.533-3.413,8.533-8.533V331.8c0-5.12-3.413-8.533-8.533-8.533s-8.533,3.413-8.533,8.533v17.067
				C374.467,353.987,377.88,357.4,383,357.4z"/>
			<path d="M383,203.8c5.12,0,8.533-3.413,8.533-8.533V178.2c0-5.12-3.413-8.533-8.533-8.533s-8.533,3.413-8.533,8.533v17.067
				C374.467,200.387,377.88,203.8,383,203.8z"/>
			<path d="M92.867,323.267c5.12,0,8.533-3.413,8.533-8.533v-17.067c0-5.12-3.413-8.533-8.533-8.533
				c-5.12,0-8.533,3.413-8.533,8.533v17.067C84.333,319.853,87.747,323.267,92.867,323.267z"/>
			<path d="M92.867,374.467c5.12,0,8.533-3.413,8.533-8.533v-17.067c0-5.12-3.413-8.533-8.533-8.533
				c-5.12,0-8.533,3.413-8.533,8.533v17.067C84.333,371.053,87.747,374.467,92.867,374.467z"/>
			<path d="M92.867,425.667c5.12,0,8.533-3.413,8.533-8.533v-17.067c0-5.12-3.413-8.533-8.533-8.533
				c-5.12,0-8.533,3.413-8.533,8.533v17.067C84.333,422.253,87.747,425.667,92.867,425.667z"/>
			<path d="M92.867,67.267c5.12,0,8.533-3.413,8.533-8.533V41.667c0-5.12-3.413-8.533-8.533-8.533c-5.12,0-8.533,3.413-8.533,8.533
				v17.067C84.333,63.853,87.747,67.267,92.867,67.267z"/>
			<path d="M92.867,118.467c5.12,0,8.533-3.413,8.533-8.533V92.867c0-5.12-3.413-8.533-8.533-8.533c-5.12,0-8.533,3.413-8.533,8.533
				v17.067C84.333,115.053,87.747,118.467,92.867,118.467z"/>
			<path d="M92.867,169.667c5.12,0,8.533-3.413,8.533-8.533v-17.067c0-5.12-3.413-8.533-8.533-8.533
				c-5.12,0-8.533,3.413-8.533,8.533v17.067C84.333,166.253,87.747,169.667,92.867,169.667z"/>
			<path d="M92.867,220.867c5.12,0,8.533-3.413,8.533-8.533v-17.067c0-5.12-3.413-8.533-8.533-8.533
				c-5.12,0-8.533,3.413-8.533,8.533v17.067C84.333,217.453,87.747,220.867,92.867,220.867z"/>
			<path d="M92.867,272.067c5.12,0,8.533-3.413,8.533-8.533v-17.067c0-5.12-3.413-8.533-8.533-8.533
				c-5.12,0-8.533,3.413-8.533,8.533v17.067C84.333,268.653,87.747,272.067,92.867,272.067z"/>
			<path d="M144.067,118.467c5.12,0,8.533-3.413,8.533-8.533V92.867c0-5.12-3.413-8.533-8.533-8.533
				c-5.12,0-8.533,3.413-8.533,8.533v17.067C135.533,115.053,138.947,118.467,144.067,118.467z"/>
			<path d="M144.067,67.267c5.12,0,8.533-3.413,8.533-8.533V41.667c0-5.12-3.413-8.533-8.533-8.533c-5.12,0-8.533,3.413-8.533,8.533
				v17.067C135.533,63.853,138.947,67.267,144.067,67.267z"/>
			<path d="M144.067,220.867c5.12,0,8.533-3.413,8.533-8.533v-17.067c0-5.12-3.413-8.533-8.533-8.533
				c-5.12,0-8.533,3.413-8.533,8.533v17.067C135.533,217.453,138.947,220.867,144.067,220.867z"/>
			<path d="M144.067,169.667c5.12,0,8.533-3.413,8.533-8.533v-17.067c0-5.12-3.413-8.533-8.533-8.533
				c-5.12,0-8.533,3.413-8.533,8.533v17.067C135.533,166.253,138.947,169.667,144.067,169.667z"/>
			<path d="M144.067,272.067c5.12,0,8.533-3.413,8.533-8.533v-17.067c0-5.12-3.413-8.533-8.533-8.533
				c-5.12,0-8.533,3.413-8.533,8.533v17.067C135.533,268.653,138.947,272.067,144.067,272.067z"/>
			<path d="M144.067,323.267c5.12,0,8.533-3.413,8.533-8.533v-17.067c0-5.12-3.413-8.533-8.533-8.533
				c-5.12,0-8.533,3.413-8.533,8.533v17.067C135.533,319.853,138.947,323.267,144.067,323.267z"/>
			<path d="M144.067,374.467c5.12,0,8.533-3.413,8.533-8.533v-17.067c0-5.12-3.413-8.533-8.533-8.533
				c-5.12,0-8.533,3.413-8.533,8.533v17.067C135.533,371.053,138.947,374.467,144.067,374.467z"/>
			<path d="M195.267,169.667c5.12,0,8.533-3.413,8.533-8.533v-17.067c0-5.12-3.413-8.533-8.533-8.533s-8.533,3.413-8.533,8.533
				v17.067C186.733,166.253,190.147,169.667,195.267,169.667z"/>
			<path d="M195.267,118.467c5.12,0,8.533-3.413,8.533-8.533V92.867c0-5.12-3.413-8.533-8.533-8.533s-8.533,3.413-8.533,8.533
				v17.067C186.733,115.053,190.147,118.467,195.267,118.467z"/>
			<path d="M195.267,67.267c5.12,0,8.533-3.413,8.533-8.533V41.667c0-5.12-3.413-8.533-8.533-8.533s-8.533,3.413-8.533,8.533v17.067
				C186.733,63.853,190.147,67.267,195.267,67.267z"/>
			<path d="M195.267,374.467c5.12,0,8.533-3.413,8.533-8.533v-17.067c0-5.12-3.413-8.533-8.533-8.533s-8.533,3.413-8.533,8.533
				v17.067C186.733,371.053,190.147,374.467,195.267,374.467z"/>
			<path d="M195.267,323.267c5.12,0,8.533-3.413,8.533-8.533v-17.067c0-5.12-3.413-8.533-8.533-8.533s-8.533,3.413-8.533,8.533
				v17.067C186.733,319.853,190.147,323.267,195.267,323.267z"/>
			<path d="M195.267,272.067c5.12,0,8.533-3.413,8.533-8.533v-17.067c0-5.12-3.413-8.533-8.533-8.533s-8.533,3.413-8.533,8.533
				v17.067C186.733,268.653,190.147,272.067,195.267,272.067z"/>
			<path d="M195.267,220.867c5.12,0,8.533-3.413,8.533-8.533v-17.067c0-5.12-3.413-8.533-8.533-8.533s-8.533,3.413-8.533,8.533
				v17.067C186.733,217.453,190.147,220.867,195.267,220.867z"/>
			<path d="M246.467,118.467c5.12,0,8.533-3.413,8.533-8.533V92.867c0-5.12-3.413-8.533-8.533-8.533s-8.533,3.413-8.533,8.533
				v17.067C237.933,115.053,241.347,118.467,246.467,118.467z"/>
			<path d="M246.467,67.267c5.12,0,8.533-3.413,8.533-8.533V41.667c0-5.12-3.413-8.533-8.533-8.533s-8.533,3.413-8.533,8.533v17.067
				C237.933,63.853,241.347,67.267,246.467,67.267z"/>
</svg>

<svg fill="currentColor" id="house" viewBox="0 0 512.213 512.213">
			<path d="M238.04,391.747h-8.533c-5.12,0-8.533,3.413-8.533,8.533c0,5.12,3.413,8.533,8.533,8.533h8.533
				c5.12,0,8.533-3.413,8.533-8.533C246.573,395.16,243.16,391.747,238.04,391.747z"/>
			<path d="M92.973,425.88c-11.947,0-20.48,7.68-23.893,11.947s-2.56,9.387,1.707,11.947c4.267,3.413,9.387,2.56,11.947-1.707
				c0,0,4.267-5.12,10.24-5.12c7.68,0,9.387,3.413,9.387,3.413c0.853,3.413,4.267,5.12,7.68,5.12c0.853,0,1.707,0,2.56-0.853
				c4.267-1.707,6.827-6.827,5.12-11.093C116.013,434.413,108.333,425.88,92.973,425.88z"/>
			<path d="M468.44,435.405V221.08h6.827c7.68,0,15.36-5.973,17.92-12.8c2.56-6.827,0.853-15.36-5.12-20.48L291.8,13.72
				c-20.48-19.627-52.907-19.627-73.387,0l-65.707,58.279V50.413h8.533c5.12,0,8.533-3.413,8.533-8.533V7.747
				c0-5.12-3.413-8.533-8.533-8.533H58.84c-5.12,0-8.533,3.413-8.533,8.533V41.88c0,5.12,3.413,8.533,8.533,8.533h8.533v97.273
				L22.147,187.8c-5.973,5.973-7.68,13.653-5.12,21.333c2.56,6.827,10.24,11.947,17.92,11.947h6.827v214.325
				c-24.322,3.782-42.667,24.905-42.667,50.209c0,6.827,1.707,13.653,4.267,20.48c0.853,3.413,4.267,5.12,7.68,5.12h163.84h29.013
				h102.4h29.013h163.84c3.413,0,5.973-1.707,7.68-5.12c2.56-6.827,4.267-13.653,4.267-20.48
				C511.107,460.31,492.762,439.187,468.44,435.405z M67.373,16.28h85.333v17.067h-8.533H75.907h-8.533V16.28z M84.44,84.547h17.067
				c5.12,0,8.533-3.413,8.533-8.533s-3.413-8.533-8.533-8.533H84.44V50.413h51.2v36.723l-51.2,45.412V84.547z M33.24,202.307
				c0-0.853,0-0.853,0.853-1.707L230.36,26.52c6.827-6.827,16.213-10.24,24.747-10.24s17.92,3.413,24.747,10.24L476.12,200.6
				c0.853,0,1.707,0.853,0.853,1.707s-1.707,0.853-1.707,0.853H34.947C34.093,203.16,33.24,203.16,33.24,202.307z M15.32,485.613
				c0-18.541,14.985-33.742,33.441-34.116c0.769,0.112,1.571,0.12,2.399-0.018c4.267-0.853,7.68-4.267,7.68-8.533
				c0-18.63,15.129-33.891,33.707-34.122c18.578,0.232,33.707,15.492,33.707,34.122c0,5.12,3.413,8.533,8.533,8.533
				c18.773,0,34.133,15.36,34.133,34.133c0,2.56,0,5.973-0.853,8.533H17.027C16.173,491.587,16.173,488.173,15.32,485.613z
				 M212.44,494.147V349.08c0-23.893,18.773-42.667,42.667-42.667c23.893,0,42.667,18.773,42.667,42.667v145.067H212.44z
				 M323.373,485.613c0,2.515,0.005,5.85,0.814,8.394c0.009,0.046,0.018,0.093,0.027,0.139h-9.374V349.08
				c0-33.28-26.453-59.733-59.733-59.733c-33.28,0-59.733,26.453-59.733,59.733v145.067h-9.374c0.009-0.046,0.019-0.093,0.027-0.139
				c0.809-2.544,0.814-5.879,0.814-8.394c0-25.6-18.773-46.933-43.52-50.347c-3.413-24.747-24.747-43.52-50.347-43.52
				c-12.8,0-24.747,4.267-34.133,12.8V221.08h392.533v183.467c-1.298-1.062-2.649-2.069-4.04-3.026
				c-8.439-6.154-18.854-9.774-30.094-9.774c-25.6,0-46.933,18.773-50.347,43.52C342.147,438.68,323.373,460.013,323.373,485.613z
				 M492.333,494.147H341.43c-0.659-2.901-0.99-5.882-0.99-8.533c0-18.773,15.36-34.133,34.133-34.133
				c5.12,0,8.533-3.413,8.533-8.533c0-18.63,15.129-33.891,33.707-34.122c18.578,0.232,33.707,15.492,33.707,34.122
				c0,5.12,3.413,8.533,8.533,8.533c18.773,0,34.133,15.36,34.133,34.133C493.187,488.173,493.187,491.587,492.333,494.147z"/>
			<path d="M417.24,425.88c-11.947,0-20.48,7.68-23.893,11.947s-2.56,9.387,1.707,11.947c4.267,3.413,9.387,1.707,11.947-1.707
				c0,0,4.267-5.12,10.24-5.12c7.68,0,9.387,3.413,9.387,3.413c0.853,3.413,4.267,5.12,7.68,5.12c0.853,0,1.707,0,2.56-0.853
				c4.267-1.707,6.827-6.827,5.12-11.093C440.28,434.413,432.6,425.88,417.24,425.88z"/>
			<path d="M178.307,323.48v-42.667V246.68c0-5.12-3.413-8.533-8.533-8.533H84.44c-5.12,0-8.533,3.413-8.533,8.533v34.133v42.667
				c-5.12,0-8.533,3.413-8.533,8.533c0,5.12,3.413,8.533,8.533,8.533h8.533h85.333h8.533c5.12,0,8.533-3.413,8.533-8.533
				C186.84,326.893,183.427,323.48,178.307,323.48z M92.973,255.213h68.267v17.067H92.973V255.213z M92.973,323.48v-34.133h25.6
				v8.533c0,5.12,3.413,8.533,8.533,8.533c5.12,0,8.533-3.413,8.533-8.533v-8.533h25.6v34.133H92.973z"/>
			<path d="M425.773,340.547h8.533c5.12,0,8.533-3.413,8.533-8.533c0-5.12-3.413-8.533-8.533-8.533v-42.667V246.68
				c0-5.12-3.413-8.533-8.533-8.533H340.44c-5.12,0-8.533,3.413-8.533,8.533v34.133v42.667c-5.12,0-8.533,3.413-8.533,8.533
				c0,5.12,3.413,8.533,8.533,8.533h8.533H425.773z M348.973,255.213h68.267v17.067h-68.267V255.213z M348.973,289.347h25.6
				c0,5.12,3.413,8.533,8.533,8.533s8.533-3.413,8.533-8.533h25.6v34.133h-68.267V289.347z"/>
</svg>
<svg fill="currentColor" id="villa" viewBox="0 0 499.128 499.128" >
			<path d="M497.564,151.472V94.288L257.564,0v57.184l16,6.288v84.264h-48v-32h-160v32h-64v128h16v176h-16v47.392h496v-47.392h-16
				V145.184L497.564,151.472z M17.564,163.736h48v24h16v-56h128v56h16v-24h48v96h-256V163.736z M129.564,291.736v160h-96v-176h240
				v176h-24v-160H129.564z M233.564,307.736v144h-88v-144H233.564z M481.564,483.128h-464v-15.392h464V483.128z M305.564,259.736
				v192h-16V69.76l176,69.136v312.84h-16v-192H305.564z M433.564,339.736v16h-112v-16h16v-16h-16v-16h112v16h-80v16H433.564z
				 M433.564,435.736v16h-112v-16h80v-16h-80v-16h112v16h-16v16H433.564z M321.564,387.736v-16h112v16H321.564z M321.564,291.736
				v-16h112v16H321.564z M273.564,46.28V23.472l208,81.72v22.816L273.564,46.28z"/>
			<path d="M97.564,227.736h96v-80h-96V227.736z M113.564,163.736h64v48h-64V163.736z"/>
			<path d="M49.564,419.736h64v-128h-64V419.736z M65.564,307.736h32v96h-32V307.736z"/>
			<path d="M305.564,235.736h64v-88h-64V235.736z M321.564,163.736h32v56h-32V163.736z"/>
			<path d="M449.564,147.736h-64v88h64V147.736z M433.564,219.736h-32v-56h32V219.736z"/>
			<rect x="201.564" y="387.736" width="16" height="16"/>
</svg>
<svg fill="currentColor" viewBox="0 0 16 16" id="close">
  <path d="M16 8A8 8 0 1 1 0 8a8 8 0 0 1 16 0M5.354 4.646a.5.5 0 1 0-.708.708L7.293 8l-2.647 2.646a.5.5 0 0 0 .708.708L8 8.707l2.646 2.647a.5.5 0 0 0 .708-.708L8.707 8l2.647-2.646a.5.5 0 0 0-.708-.708L8 7.293z"/>
</svg>
<svg fill="currentColor" viewBox="0 0 16 16" id="logOut">
  <path d="M12 1a1 1 0 0 1 1 1v13h1.5a.5.5 0 0 1 0 1h-13a.5.5 0 0 1 0-1H3V2a1 1 0 0 1 1-1zm-2 9a1 1 0 1 0 0-2 1 1 0 0 0 0 2"/>
</svg>
</svg>